<?xml version="1.0" standalone="no"?>
<!DOCTYPE svg PUBLIC "-//W3C//DTD SVG 20010904//EN"
 "http://www.w3.org/TR/2001/REC-SVG-20010904/DTD/svg10.dtd">
<svg version="1.0" xmlns="http://www.w3.org/2000/svg"
 width="300.000000pt" height="300.000000pt" viewBox="0 0 300.000000 300.000000"
 preserveAspectRatio="xMidYMid meet">
<metadata>
Created by potrace 1.11, written by Peter Selinger 2001-2013
</metadata>
<g transform="translate(0.000000,300.000000) scale(0.100000,-0.100000)"
fill="#000000" stroke="none">
<path d="M1306 2884 c-358 -46 -724 -257 -927 -534 -229 -315 -319 -672 -263
-1049 19 -126 112 -396 143 -415 5 -3 191 -6 414 -6 328 -1 407 -3 416 -14 9
-10 8 -29 -3 -72 -9 -33 -19 -77 -24 -99 l-8 -40 -317 0 c-226 0 -317 -3 -317
-11 0 -6 36 -47 79 -92 243 -245 536 -382 881 -411 265 -22 552 33 765 146
269 143 498 380 622 644 42 90 90 241 108 346 55 307 10 595 -136 886 -55 109
-185 275 -281 360 -247 218 -515 336 -828 366 -133 13 -188 12 -324 -5z m112
-321 l2 -183 -399 0 c-239 0 -402 4 -406 9 -7 12 52 67 131 122 86 61 247 144
339 174 96 33 247 64 295 62 l35 -2 3 -182z m321 167 c221 -45 409 -135 599
-288 78 -63 86 -62 -363 -62 -317 0 -405 3 -405 13 -3 70 2 342 6 349 8 13 54
10 163 -12z m798 -512 c13 -12 23 -26 23 -31 0 -6 6 -18 14 -26 27 -29 104
-195 130 -280 46 -145 59 -249 53 -411 -6 -133 -22 -238 -39 -255 -9 -10
-2431 -7 -2439 3 -15 16 -41 201 -40 282 3 250 52 430 174 642 66 115 -61 103
1092 100 l1009 -2 23 -22z m-108 -1173 c2 -3 -3 -35 -11 -72 l-14 -68 -82 -3
c-75 -3 -82 -5 -86 -25 -2 -12 -15 -74 -30 -137 -14 -63 -31 -144 -37 -180 -7
-36 -16 -71 -22 -77 -9 -13 -167 -19 -179 -8 -2 3 1 33 9 67 7 35 22 106 33
158 11 52 24 113 30 135 17 69 21 66 -97 63 l-107 -3 -28 -135 c-16 -74 -34
-164 -41 -200 -7 -36 -16 -71 -20 -78 -6 -9 -34 -11 -94 -10 l-86 3 -48 144
c-26 79 -52 148 -57 153 -4 4 -21 -59 -37 -141 -31 -167 -26 -161 -122 -161
-63 0 -83 7 -83 29 0 9 16 86 35 171 20 85 42 191 50 234 8 44 20 95 26 113
l11 34 90 -3 90 -3 19 -50 c11 -27 33 -92 50 -142 29 -86 49 -117 49 -75 -1
39 44 248 56 262 11 13 62 15 370 12 197 -2 360 -5 363 -7z"/>
<path d="M505 1970 c-3 -5 -17 -64 -30 -132 -14 -68 -39 -187 -56 -265 -17
-79 -29 -148 -27 -154 5 -15 851 -13 916 2 70 17 99 35 132 80 37 51 48 129
27 181 -19 45 -55 65 -154 84 -88 16 -93 19 -93 44 0 32 33 40 153 40 l115 0
16 -72 c8 -40 23 -129 32 -198 23 -177 16 -170 175 -170 l131 0 26 29 c15 16
40 55 57 87 64 126 138 260 153 277 16 18 68 23 92 7 16 -10 7 -67 -46 -289
-14 -57 -22 -106 -20 -109 6 -5 208 -3 214 3 5 4 35 140 52 235 6 30 17 78 24
105 l13 50 81 5 c44 3 82 7 85 10 4 5 37 140 37 153 0 4 -155 7 -344 7 l-345
0 -86 -170 c-47 -93 -90 -170 -95 -170 -14 0 -18 28 -25 180 -4 80 -10 149
-14 153 -8 8 -403 3 -481 -6 -63 -7 -102 -21 -147 -51 l-38 -26 -30 34 c-16
19 -43 37 -60 41 -44 10 -434 15 -440 5z m280 -114 c64 -27 33 -88 -50 -101
-58 -8 -69 1 -59 49 12 65 43 79 109 52z m221 -141 c10 -42 51 -63 202 -104
48 -13 57 -42 21 -62 -17 -9 -162 -15 -226 -10 -9 1 -13 17 -13 46 0 35 -6 52
-25 70 -13 14 -29 25 -35 25 -21 0 -9 30 18 44 39 21 51 20 58 -9z m-254 -92
c26 -23 23 -59 -7 -79 -30 -20 -110 -31 -119 -16 -3 6 -1 33 6 61 l11 51 45 0
c28 0 52 -6 64 -17z"/>
</g>
</svg>
